<?xml version="1.0" standalone="no"?>
<!DOCTYPE svg PUBLIC "-//W3C//DTD SVG 20010904//EN"
 "http://www.w3.org/TR/2001/REC-SVG-20010904/DTD/svg10.dtd">
<svg version="1.0" xmlns="http://www.w3.org/2000/svg"
 width="1084.000000pt" height="1084.000000pt" viewBox="0 0 1084.000000 1084.000000"
 preserveAspectRatio="xMidYMid meet">
<metadata>
Created by potrace 1.11, written by Peter Selinger 2001-2013
</metadata>
<g transform="translate(0.000000,1084.000000) scale(0.100000,-0.100000)"
fill="#000000" stroke="none">
<path d="M610 10817 c-114 -35 -212 -91 -301 -175 -127 -119 -206 -254 -258
-442 l-26 -95 0 -2535 0 -2535 28 -100 c85 -310 277 -521 562 -617 l70 -23
1303 -3 1303 -3 -4 -992 c-4 -1074 0 -1004 -62 -1368 -96 -569 -279 -1087
-504 -1424 -160 -241 -317 -383 -525 -477 l-61 -27 4043 -1 4043 0 62 21 c109
37 196 89 283 172 101 96 168 192 211 308 67 179 64 16 61 2629 l-3 2365 -23
80 c-85 293 -292 509 -567 591 -56 17 -143 19 -1368 21 l-1308 3 4 1113 c4
1229 0 1148 72 1567 112 646 324 1215 579 1560 124 168 301 315 454 381 l67
28 -4030 0 -4030 0 -75 -22z m3528 -1247 c153 -17 434 -77 577 -124 71 -24
177 -67 234 -95 114 -57 231 -131 231 -145 0 -6 -317 -734 -324 -743 0 -1 -33
12 -71 29 -116 49 -383 135 -495 158 -160 33 -335 46 -428 33 -186 -27 -302
-113 -302 -225 0 -25 10 -42 50 -79 58 -57 172 -114 375 -188 497 -182 781
-343 984 -557 188 -197 271 -401 271 -662 0 -296 -90 -546 -263 -729 l-50 -53
-458 0 c-493 0 -548 -4 -669 -53 -105 -43 -172 -89 -267 -184 l-92 -92 -143
24 c-277 49 -488 108 -655 186 -91 42 -253 143 -253 158 0 13 319 723 330 735
5 5 49 -9 103 -33 367 -161 830 -240 1060 -182 137 36 228 99 248 174 35 131
-121 258 -461 375 -302 104 -546 220 -750 357 -231 154 -331 260 -416 439
-106 224 -95 571 26 825 54 113 111 191 206 281 213 203 508 326 884 369 109
12 405 13 518 1z m3506 -4749 c316 -56 578 -192 801 -416 248 -248 400 -560
476 -975 17 -96 22 -168 26 -442 l5 -328 -1137 0 -1137 0 6 -32 c10 -50 68
-178 109 -239 115 -173 298 -286 544 -336 122 -24 438 -24 573 0 220 40 442
115 626 211 46 24 84 43 84 42 0 -1 72 -179 160 -396 l160 -395 -27 -22 c-89
-73 -341 -192 -543 -258 -524 -170 -1223 -163 -1755 16 -131 45 -316 137 -436
217 -416 281 -649 673 -720 1212 -16 119 -15 455 0 575 53 402 190 727 425
1004 267 316 692 527 1167 580 139 16 456 6 593 -18z"/>
<path d="M7112 3890 c-106 -28 -167 -64 -253 -151 -106 -106 -164 -226 -194
-401 l-6 -38 606 0 606 0 -7 38 c-13 74 -62 212 -99 279 -51 90 -162 201 -238
237 -121 57 -282 71 -415 36z"/>
</g>
</svg>
